<svg width="64" height="64" xmlns="http://www.w3.org/2000/svg">
  <!-- Niebieskie tło -->
  <rect width="64" height="64" fill="#2563EB"/>
  
  <!-- Białe logo -->
  <g transform="translate(12, 10)">
    <polygon fill="#FFFFFF" points="17.65 15 13.05 19.6 14.1 20.6 19.75 15 17.65 15"/>
    <polygon fill="#FFFFFF" points="1.75 9.35 9.45 17.05 10.45 16 3.8 9.35 10.5 2.65 9.45 1.6 1.75 9.35"/>
    <polygon fill="#FFFFFF" points="5.85 8.8 6.9 9.85 13.55 3.15 17.7 7.35 19.8 7.35 13.55 1.1 5.85 8.8"/>
    <polygon fill="#FFFFFF" points="13.05 6.25 14.15 7.35 16.2 7.35 14.1 5.2 13.05 6.25"/>
    <polygon fill="#FFFFFF" points="2.3 13.5 10.05 21.25 16.3 15 14.2 15 10.05 19.15 3.35 12.45 2.3 13.5"/>
    <polygon fill="#FFFFFF" points="9.9 8.7 9.9 9.5 11.55 9.5 11.55 13.75 12.45 13.75 12.45 9.5 14.1 9.5 14.1 8.7 9.9 8.7"/>
    <path fill="#FFFFFF" d="M15.4,10c0,1.15,0.95,1.4,2,1.5c0.85,0.1,1.25,0.35,1.25,0.8s-0.45,0.8-1.25,0.8s-1.25-0.3-1.5-0.8l-0.75,0.4c0.35,0.8,1.05,1.2,2.2,1.2s2.15-0.4,2.15-1.6s-0.8-1.45-2.05-1.6c-0.6-0.05-1.2-0.2-1.2-0.7s0.3-0.75,1.1-0.75s1.05,0.25,1.25,0.55l0.7-0.35c-0.4-0.8-1.3-0.95-1.95-0.95c-1,0-1.95,0.45-1.95,1.45Z"/>
    <path fill="#FFFFFF" d="M20.85,11.25c0-0.55,0.2-1.05,0.5-1.45c0.3-0.3,0.75-0.5,1.25-0.5c1.55,0,1.75,1.35,1.75,1.8c0,0.55-0.15,1.05-0.5,1.45c-0.3,0.35-0.75,0.5-1.25,0.5c-1.15,0-1.75-0.9-1.75-1.8M20.75,9.3c-0.5,0.5-0.75,1.2-0.75,1.95c0,1.2,0.7,2.65,2.6,2.65s1.05-0.1,1.45-0.4h0s0.6,0.6,0.6,0.6l0.6-0.6l-0.6-0.6h0c0.3-0.5,0.5-1.05,0.45-1.7c0-1.2-0.7-2.6-2.6-2.6s-1.4,0.25-1.85,0.7h0Z"/>
  </g>
</svg> 