<?xml version="1.0" encoding="UTF-8"?>
<svg id="Warstwa_1" xmlns="http://www.w3.org/2000/svg" version="1.1" xmlns:xlink="http://www.w3.org/1999/xlink" viewBox="0 0 53.7 44.1">
  <!-- Generator: Adobe Illustrator 29.1.0, SVG Export Plug-In . SVG Version: 2.1.0 Build 142)  -->
  <defs>
    <style>
      .st0 {
        clip-path: url(#clippath-6);
      }

      .st1 {
        clip-path: url(#clippath-7);
      }

      .st2 {
        clip-path: url(#clippath-4);
      }

      .st3 {
        fill: #fff;
      }

      .st4 {
        fill: none;
      }

      .st5 {
        clip-path: url(#clippath-1);
      }

      .st6 {
        clip-path: url(#clippath-5);
      }

      .st7 {
        clip-path: url(#clippath-3);
      }

      .st8 {
        clip-path: url(#clippath-2);
      }

      .st9 {
        clip-path: url(#clippath);
      }
    </style>
    <clipPath id="clippath">
      <polygon class="st4" points="35.3 30 26.1 39.2 28.2 41.2 39.5 30 35.3 30"/>
    </clipPath>
    <clipPath id="clippath-1">
      <polygon class="st4" points="3.5 18.7 18.9 34.1 20.9 32 7.6 18.7 21 5.3 18.9 3.2 3.5 18.7"/>
    </clipPath>
    <clipPath id="clippath-2">
      <polygon class="st4" points="11.7 17.6 13.8 19.7 27.1 6.3 35.4 14.7 39.6 14.7 27.1 2.2 11.7 17.6"/>
    </clipPath>
    <clipPath id="clippath-3">
      <polygon class="st4" points="26.1 12.5 28.3 14.7 32.4 14.7 28.2 10.4 26.1 12.5"/>
    </clipPath>
    <clipPath id="clippath-4">
      <polygon class="st4" points="4.6 27 20.1 42.5 32.6 30 28.4 30 20.1 38.3 6.7 24.9 4.6 27"/>
    </clipPath>
    <clipPath id="clippath-5">
      <polygon class="st4" points="19.8 17.4 19.8 19 23.1 19 23.1 27.5 24.9 27.5 24.9 19 28.2 19 28.2 17.4 19.8 17.4"/>
    </clipPath>
    <clipPath id="clippath-6">
      <path class="st4" d="M30.8,20c0,2.3,1.9,2.8,4,3,1.7.2,2.5.7,2.5,1.6s-.9,1.7-2.5,1.7-2.5-.6-3-1.6l-1.5.8c.7,1.6,2.1,2.4,4.4,2.4s4.3-.8,4.3-3.2-1.6-2.9-4.1-3.2c-1.2-.1-2.4-.4-2.4-1.4s.6-1.5,2.2-1.5,2.1.5,2.5,1.1l1.4-.7c-.8-1.6-2.6-1.9-3.9-1.9-2,0-3.9.9-3.9,2.9Z"/>
    </clipPath>
    <clipPath id="clippath-7">
      <path class="st4" d="M41.7,22.5c0-1.1.4-2.2,1-2.8.6-.6,1.5-1,2.5-1,3.1,0,3.5,2.7,3.5,3.6,0,1.1-.3,2.1-1,2.8-.6.7-1.5,1-2.5,1-2.3,0-3.5-1.8-3.5-3.6M41.5,18.6c-1,1-1.5,2.4-1.5,3.9,0,2.4,1.4,5.3,5.2,5.3s2.1-.2,2.9-.8h0s1.2,1.2,1.2,1.2l1.2-1.2-1.2-1.2h0c.6-1,1-2.1.9-3.4,0-2.4-1.4-5.2-5.2-5.2s-2.8.5-3.7,1.4h0Z"/>
    </clipPath>
  </defs>
  <g>
    <polygon class="st3" points="35.3 30 26.1 39.2 28.2 41.2 39.5 30 35.3 30"/>
    <g class="st9">
      <rect class="st3" x="26.1" y="30" width="13.4" height="11.3"/>
    </g>
  </g>
  <g>
    <polygon class="st3" points="3.5 18.7 18.9 34.1 20.9 32 7.6 18.7 21 5.3 18.9 3.2 3.5 18.7"/>
    <g class="st5">
      <rect class="st3" x="3.5" y="3.2" width="17.5" height="30.8"/>
    </g>
  </g>
  <g>
    <polygon class="st3" points="11.7 17.6 13.8 19.7 27.1 6.3 35.4 14.7 39.6 14.7 27.1 2.2 11.7 17.6"/>
    <g class="st8">
      <rect class="st3" x="11.7" y="2.2" width="27.9" height="17.5"/>
    </g>
  </g>
  <g>
    <polygon class="st3" points="26.1 12.5 28.3 14.7 32.4 14.7 28.2 10.4 26.1 12.5"/>
    <g class="st7">
      <rect class="st3" x="26.1" y="10.4" width="6.3" height="4.2"/>
    </g>
  </g>
  <g>
    <polygon class="st3" points="4.6 27 20.1 42.5 32.6 30 28.4 30 20.1 38.3 6.7 24.9 4.6 27"/>
    <g class="st2">
      <rect class="st3" x="4.6" y="24.9" width="27.9" height="17.5"/>
    </g>
  </g>
  <g>
    <polygon class="st3" points="19.8 17.4 19.8 19 23.1 19 23.1 27.5 24.9 27.5 24.9 19 28.2 19 28.2 17.4 19.8 17.4"/>
    <g class="st6">
      <rect class="st3" x="19.8" y="17.4" width="8.3" height="10.2"/>
    </g>
  </g>
  <g>
    <path class="st3" d="M30.8,20c0,2.3,1.9,2.8,4,3,1.7.2,2.5.7,2.5,1.6s-.9,1.6-2.5,1.6-2.5-.6-3-1.6l-1.5.8c.7,1.6,2.1,2.4,4.4,2.4s4.3-.8,4.3-3.2-1.6-2.9-4.1-3.2c-1.2-.1-2.4-.4-2.4-1.4s.6-1.5,2.2-1.5,2.1.5,2.5,1.1l1.4-.7c-.8-1.6-2.6-1.9-3.9-1.9-2,0-3.9.9-3.9,2.9"/>
    <g class="st0">
      <rect class="st3" x="30.3" y="17" width="8.6" height="10.8"/>
    </g>
  </g>
  <g>
    <path class="st3" d="M41.7,22.5c0-1.1.4-2.1,1-2.9.6-.6,1.5-1,2.5-1,3.1,0,3.5,2.7,3.5,3.6,0,1.1-.3,2.1-1,2.9-.6.7-1.5,1-2.5,1-2.3,0-3.5-1.8-3.5-3.6M41.5,18.6c-1,1-1.5,2.4-1.5,3.9,0,2.4,1.4,5.3,5.2,5.3s2.1-.2,2.9-.8h0s1.2,1.2,1.2,1.2l1.2-1.2-1.2-1.2h0c.6-1,1-2.1.9-3.4,0-2.4-1.4-5.2-5.2-5.2s-2.8.5-3.7,1.4"/>
    <g class="st1">
      <rect class="st3" x="40" y="17.1" width="10.7" height="11"/>
    </g>
  </g>
</svg>