<svg width="1200" height="630" xmlns="http://www.w3.org/2000/svg">
  <!-- Niebieskie tło -->
  <rect width="1200" height="630" fill="#2563EB"/>
  
  <!-- Białe logo -->
  <g transform="translate(400, 115)">
    <polygon fill="#FFFFFF" points="35.3 30 26.1 39.2 28.2 41.2 39.5 30 35.3 30"/>
    <polygon fill="#FFFFFF" points="3.5 18.7 18.9 34.1 20.9 32 7.6 18.7 21 5.3 18.9 3.2 3.5 18.7"/>
    <polygon fill="#FFFFFF" points="11.7 17.6 13.8 19.7 27.1 6.3 35.4 14.7 39.6 14.7 27.1 2.2 11.7 17.6"/>
    <polygon fill="#FFFFFF" points="26.1 12.5 28.3 14.7 32.4 14.7 28.2 10.4 26.1 12.5"/>
    <polygon fill="#FFFFFF" points="4.6 27 20.1 42.5 32.6 30 28.4 30 20.1 38.3 6.7 24.9 4.6 27"/>
    <polygon fill="#FFFFFF" points="19.8 17.4 19.8 19 23.1 19 23.1 27.5 24.9 27.5 24.9 19 28.2 19 28.2 17.4 19.8 17.4"/>
    <path fill="#FFFFFF" d="M30.8,20c0,2.3,1.9,2.8,4,3,1.7.2,2.5.7,2.5,1.6s-.9,1.6-2.5,1.6-2.5-.6-3-1.6l-1.5.8c.7,1.6,2.1,2.4,4.4,2.4s4.3-.8,4.3-3.2-1.6-2.9-4.1-3.2c-1.2-.1-2.4-.4-2.4-1.4s.6-1.5,2.2-1.5,2.1.5,2.5,1.1l1.4-.7c-.8-1.6-2.6-1.9-3.9-1.9-2,0-3.9.9-3.9,2.9"/>
    <path fill="#FFFFFF" d="M41.7,22.5c0-1.1.4-2.1,1-2.9.6-.6,1.5-1,2.5-1,3.1,0,3.5,2.7,3.5,3.6,0,1.1-.3,2.1-1,2.9-.6.7-1.5,1-2.5,1-2.3,0-3.5-1.8-3.5-3.6M41.5,18.6c-1,1-1.5,2.4-1.5,3.9,0,2.4,1.4,5.3,5.2,5.3s2.1-.2,2.9-.8h0s1.2,1.2,1.2,1.2l1.2-1.2-1.2-1.2h0c.6-1,1-2.1.9-3.4,0-2.4-1.4-5.2-5.2-5.2s-2.8.5-3.7,1.4"/>
  </g>
  
  <!-- Nazwa aplikacji -->
  <text x="600" y="450" font-family="Arial, sans-serif" font-size="60" text-anchor="middle" fill="#FFFFFF" font-weight="bold">Investment Tracker</text>
  <text x="600" y="520" font-family="Arial, sans-serif" font-size="30" text-anchor="middle" fill="#FFFFFF">Narzędzie do śledzenia i planowania inwestycji</text>
</svg> 