<?xml version="1.0" encoding="UTF-8"?>
<svg xmlns="http://www.w3.org/2000/svg" xmlns:xlink="http://www.w3.org/1999/xlink" viewBox="0 0 512 537">
  <defs>
    <style>
      .cls-1 {
        fill: #fff;
      }

      .cls-2 {
        fill: none;
      }

      .cls-3 {
        fill: #999;
      }

      .cls-4 {
        fill: #c8102e;
      }

      .cls-5 {
        fill: #fefefe;
      }

      .cls-6 {
        clip-path: url(#clippath);
      }
    </style>
    <clipPath id="clippath">
      <path class="cls-2" d="M256,39.59c119.52,0,216.41,96.89,216.41,216.4s-96.89,216.42-216.41,216.42S39.6,375.51,39.6,255.99,136.49,39.59,256,39.59h0Z"/>
    </clipPath>
  </defs>
  <g id="Warstwa_1" data-name="Warstwa 1" image-rendering="optimizeQuality" shape-rendering="geometricPrecision" text-rendering="geometricPrecision">
    <path class="cls-3" d="M256,0c70.68,0,134.69,28.66,181.01,74.99,46.33,46.32,74.99,110.33,74.99,181.01s-28.66,134.69-74.99,181.01c-46.32,46.33-110.33,74.99-181.01,74.99s-134.69-28.66-181.01-74.99C28.66,390.69,0,326.68,0,256S28.66,121.31,74.99,74.99C121.31,28.66,185.32,0,256,0Z"/>
    <path class="cls-1" d="M256,19.48c65.3,0,124.46,26.48,167.25,69.27l1.09,1.18c42.14,42.71,68.18,101.37,68.18,166.06s-26.5,124.46-69.29,167.25l-1.18,1.09c-42.73,42.16-101.4,68.19-166.05,68.19s-124.37-26.51-167.18-69.33c-42.84-42.74-69.33-101.89-69.33-167.2s26.48-124.45,69.27-167.24c42.79-42.79,101.94-69.27,167.24-69.27Z"/>
    <path class="cls-5" d="M256,39.59c119.52,0,216.41,96.89,216.41,216.4s-96.89,216.42-216.41,216.42S39.6,375.51,39.6,255.99,136.49,39.59,256,39.59h0Z"/>
    <g class="cls-6">
      <rect class="cls-4" x="19.49" y="236" width="477.51" height="301"/>
    </g>
  </g>
</svg>